<svg width="200" height="203" viewBox="0 0 200 203" fill="none" xmlns="http://www.w3.org/2000/svg">
<path d="M3.50028 171.398C11.1163 189.983 23.5343 193.851 32.2651 189.983C49.1502 182.502 93.0118 174.143 138.059 193.791C197.722 219.814 210.416 180.552 191.375 140.837C172.334 101.123 165.88 60.9604 187.831 38.8333C209.782 16.7061 181.057 -17.9087 130.044 18.1229C97.0774 41.4079 72.8839 36.223 59.892 29.6405C47.6476 23.4366 34.0304 16.9509 21.2723 22.0149C5.7918 28.16 -0.307998 41.4826 23.2449 71.2457C56.6213 113.422 -13.572 129.74 3.50028 171.398Z" fill="#DEE9FF"/>
<path d="M34.5103 80.8643H153.038V172.02C153.038 172.205 152.965 172.383 152.833 172.514C152.702 172.646 152.524 172.72 152.338 172.72H35.2103C35.0246 172.72 34.8465 172.646 34.7153 172.514C34.584 172.383 34.5103 172.205 34.5103 172.02V80.8643Z" fill="#A2BDFF"/>
<path d="M123.304 45.1426H68.1905L34.5103 80.864H153.038L123.304 45.1426Z" fill="#418DF9"/>
<path d="M45.7368 30.854L68.1902 45.1427L34.51 80.8641L8.99463 61.4724L45.7368 30.854Z" fill="#699CFF"/>
<path d="M145.757 30.854L123.303 45.1427L153.038 80.8641L182.499 61.4724L145.757 30.854Z" fill="#699CFF"/>
<path d="M82.6698 31.5844C83.3034 31.284 83.7964 30.7503 84.0457 30.0949C84.2951 29.4395 84.2814 28.7131 84.0077 28.0675L73.9068 4.24955C73.7637 3.91218 73.5539 3.60722 73.29 3.35302C73.026 3.09882 72.7134 2.90061 72.3709 2.77033C72.0284 2.64005 71.6631 2.58038 71.2969 2.59491C70.9307 2.60944 70.5713 2.69786 70.2402 2.85487L68.2942 3.77761C67.9631 3.93461 67.6671 4.15694 67.4242 4.43124C67.1812 4.70554 66.9962 5.02614 66.8803 5.37377C66.7644 5.7214 66.7199 6.08888 66.7497 6.45411C66.7794 6.81935 66.8827 7.1748 67.0534 7.49909L79.1001 30.3941C79.4267 31.0147 79.9804 31.4851 80.6457 31.7069C81.3109 31.9287 82.0362 31.8848 82.6698 31.5844Z" fill="#418DF9"/>
<path d="M95.3338 29.2755C95.7924 29.2429 96.2206 29.0343 96.529 28.6933C96.8374 28.3523 97.0021 27.9054 96.9887 27.4459L96.4898 10.4896C96.4827 10.2494 96.4271 10.0132 96.3264 9.79501C96.2257 9.57685 96.0819 9.38131 95.9037 9.22014C95.7255 9.05898 95.5165 8.93551 95.2894 8.85717C95.0622 8.77882 94.8216 8.74722 94.5819 8.76425L93.1731 8.86463C92.9335 8.88169 92.6998 8.94701 92.4861 9.05666C92.2724 9.16632 92.0831 9.31805 91.9295 9.50273C91.7759 9.68742 91.6612 9.90125 91.5924 10.1314C91.5235 10.3615 91.5019 10.6032 91.5288 10.8419L93.4366 27.6979C93.4881 28.1548 93.7144 28.5742 94.068 28.8682C94.4216 29.1622 94.8751 29.3082 95.3338 29.2755V29.2755Z" fill="#418DF9"/>
<path d="M105.11 35.5437C106.371 36.2729 108.142 35.6037 109.124 34.0264L126.563 6.01897C127.605 4.34583 127.358 2.30659 126.02 1.53309L124.155 0.455089C122.818 -0.31855 120.927 0.484767 119.997 2.22231L104.422 31.3076C103.545 32.9457 103.848 34.8143 105.11 35.5437Z" fill="#418DF9"/>
</svg>
